<?xml version="1.0" encoding="utf-8"?>
<!-- Generated by IcoMoon.io -->
<!DOCTYPE svg PUBLIC "-//W3C//DTD SVG 1.1//EN" "http://www.w3.org/Graphics/SVG/1.1/DTD/svg11.dtd">
<svg version="1.1" xmlns="http://www.w3.org/2000/svg" xmlns:xlink="http://www.w3.org/1999/xlink" width="128" height="128" viewBox="0 0 128 128">
<g>
</g>
	<path d="M16.929 101h16.5v-49.571h-16.5v49.571zM34.5 36.143q-0.071-3.714-2.571-6.143t-6.643-2.429-6.75 2.429-2.607 6.143q0 3.643 2.536 6.107t6.607 2.464h0.071q4.214 0 6.786-2.464t2.571-6.107zM76.286 101h16.5v-28.429q0-11-5.214-16.643t-13.786-5.643q-9.714 0-14.929 8.357h0.143v-7.214h-16.5q0.214 4.714 0 49.571h16.5v-27.714q0-2.714 0.5-4 1.071-2.5 3.214-4.25t5.286-1.75q8.286 0 8.286 11.214v26.5zM109.714 29.714v68.571q0 8.5-6.036 14.536t-14.536 6.036h-68.571q-8.5 0-14.536-6.036t-6.036-14.536v-68.571q0-8.5 6.036-14.536t14.536-6.036h68.571q8.5 0 14.536 6.036t6.036 14.536z" fill="#000000" />
</svg>
