<?xml version="1.0" encoding="utf-8"?>
<!-- Generated by IcoMoon.io -->
<!DOCTYPE svg PUBLIC "-//W3C//DTD SVG 1.1//EN" "http://www.w3.org/Graphics/SVG/1.1/DTD/svg11.dtd">
<svg version="1.1" xmlns="http://www.w3.org/2000/svg" xmlns:xlink="http://www.w3.org/1999/xlink" width="128" height="128" viewBox="0 0 128 128">
<g>
</g>
	<path d="M28.143 96.571q-0.571 0.643-1.429-0.214-0.929-0.786-0.286-1.357 0.571-0.643 1.429 0.214 0.857 0.786 0.286 1.357zM25.143 92.214q0.643 0.857 0 1.357-0.571 0.429-1.214-0.5t0-1.286q0.643-0.5 1.214 0.429zM20.786 87.929q-0.357 0.5-0.929 0.143-0.714-0.357-0.5-0.857 0.214-0.357 0.929-0.143 0.714 0.357 0.5 0.857zM23 90.357q-0.429 0.5-1.143-0.214-0.643-0.786-0.143-1.143 0.429-0.429 1.143 0.214 0.643 0.786 0.143 1.143zM32.214 98.357q-0.286 0.857-1.357 0.429-1.214-0.286-0.929-1.071t1.357-0.5q1.143 0.357 0.929 1.143zM36.714 98.714q0 0.786-1.143 0.786-1.214 0.143-1.214-0.786 0-0.786 1.143-0.786 1.214-0.143 1.214 0.786zM40.857 98q0.143 0.714-1 1t-1.286-0.571 1-1.071q1.143-0.143 1.286 0.643zM109.714 29.714v68.571q0 8.5-6.036 14.536t-14.536 6.036h-16q-1.143 0-1.75-0.071t-1.393-0.357-1.143-1.036-0.357-1.964v-17.071q0-6.929-3.714-10.143 4.071-0.429 7.321-1.286t6.714-2.786 5.786-4.75 3.786-7.5 1.464-10.75q0-8.643-5.643-14.714 2.643-6.5-0.571-14.571-2-0.643-5.786 0.786t-6.571 3.143l-2.714 1.714q-6.643-1.857-13.714-1.857t-13.714 1.857q-1.143-0.786-3.036-1.929t-5.964-2.75-6.143-0.964q-3.143 8.071-0.5 14.571-5.643 6.071-5.643 14.714 0 6.071 1.464 10.714t3.75 7.5 5.75 4.786 6.714 2.786 7.321 1.286q-2.857 2.571-3.5 7.357-1.5 0.714-3.214 1.071t-4.071 0.357-4.679-1.536-3.964-4.464q-1.357-2.286-3.464-3.714t-3.536-1.714l-1.429-0.214q-1.5 0-2.071 0.321t-0.357 0.821 0.643 1 0.929 0.857l0.5 0.357q1.571 0.714 3.107 2.714t2.25 3.643l0.714 1.643q0.929 2.714 3.143 4.393t4.786 2.143 4.964 0.5 3.964-0.25l1.643-0.286q0 2.714 0.036 7.357t0.036 4.857q0 1.571-0.786 2.393t-1.571 0.929-2.357 0.107h-16q-8.5 0-14.536-6.036t-6.036-14.536v-68.571q0-8.5 6.036-14.536t14.536-6.036h68.571q8.5 0 14.536 6.036t6.036 14.536z" fill="#000000" />
</svg>
